# xmcd
#
# Track frame offsets: 
#        150
#        17067
#        37202
#        58630
#        73518
#        105886
#        123903
#        139929
#        155294
#        178937
#        202634
#        231796
#
# Disc length: 3264 seconds
#
# Revision: 1
# Processed by: cddbd v1.5.1PL2 Copyright (c) Steve Scherf et al.
# Submitted via: ExactAudioCopy v0.95b4
#
DISCID=9b0cbe0c
DTITLE=Emad Sayyah - Modern belly dance from Lebanon - Queen of the de
DTITLE=sert nights 
DYEAR=2000
DGENRE=Middle Eastern
TTITLE0=Yalla Oumou Nourkos (Let's Get up and Dance)
TTITLE1=Raks´l Kawaafel (Dance of the Caravans)
TTITLE2=Kirmaalik (For You)
TTITLE3=Raksik (Your Dance)
TTITLE4=Malla Talli (What a Sight)
TTITLE5=Dala (Temptation)
TTITLE6=Ah Ya ´Eini (Oh how Wonderful)
TTITLE7=Ahaasiis (Feelings)
TTITLE8=Fistaanik! Aaah (Your Dance Costume)
TTITLE9=Ya Habibi Daab Albi (My Darling, my Heart is Melting)
TTITLE10=Layaali Beirut Hilwi (Nights are Beautiful in Beirut)
TTITLE11=Shoufou Ya Naas (Look!)
EXTD=
EXTT0=
EXTT1=
EXTT2=
EXTT3=
EXTT4=
EXTT5=
EXTT6=
EXTT7=
EXTT8=
EXTT9=
EXTT10=
EXTT11=
PLAYORDER=
